<svg width="74" height="34" viewBox="0 0 74 34" fill="none" xmlns="http://www.w3.org/2000/svg">
<path d="M34.5684 18.5087V26.0915H32.1641V7.36621H38.5382C40.1536 7.36621 41.5312 7.90516 42.6582 8.98306C43.8103 10.061 44.3864 11.377 44.3864 12.9312C44.3864 14.5229 43.8103 15.839 42.6582 16.9043C41.5437 17.9697 40.1662 18.4961 38.5382 18.4961H34.5684V18.5087ZM34.5684 9.67241V16.2025H38.5883C39.54 16.2025 40.3415 15.8766 40.9676 15.2374C41.6063 14.5981 41.9319 13.8211 41.9319 12.9437C41.9319 12.0789 41.6063 11.3143 40.9676 10.6751C40.3415 10.0108 39.5525 9.68494 38.5883 9.68494H34.5684V9.67241Z" fill="#CBD2D8"/>
<path d="M50.6731 12.8555C52.4513 12.8555 53.8539 13.3317 54.8808 14.2843C55.9076 15.2369 56.4211 16.5404 56.4211 18.1948V26.0911H54.1294V24.3113H54.0292C53.0399 25.7777 51.7125 26.5047 50.0595 26.5047C48.6444 26.5047 47.4672 26.091 46.5155 25.2513C45.5638 24.4115 45.0879 23.3712 45.0879 22.1179C45.0879 20.7893 45.5888 19.7365 46.5906 18.9594C47.5925 18.1698 48.9324 17.7812 50.5979 17.7812C52.0255 17.7812 53.2027 18.0444 54.1169 18.5708V18.0193C54.1169 17.1796 53.7913 16.4777 53.1276 15.8886C52.4638 15.2995 51.6874 15.0113 50.7983 15.0113C49.4584 15.0113 48.3939 15.5753 47.6175 16.7158L45.5011 15.3873C46.6658 13.6952 48.3939 12.8555 50.6731 12.8555ZM47.5674 22.1555C47.5674 22.7822 47.8304 23.3086 48.3689 23.7222C48.8948 24.1358 49.521 24.3489 50.2348 24.3489C51.2491 24.3489 52.1508 23.9729 52.9397 23.2208C53.7287 22.4688 54.1294 21.5915 54.1294 20.5762C53.378 19.9871 52.3386 19.6863 50.9987 19.6863C50.0219 19.6863 49.2079 19.9245 48.5567 20.3882C47.893 20.877 47.5674 21.4661 47.5674 22.1555Z" fill="#CBD2D8"/>
<path d="M69.4947 13.2695L61.48 31.7191H59.0005L61.9809 25.2643L56.6963 13.2695H59.3136L63.1205 22.4693H63.1706L66.8774 13.2695H69.4947Z" fill="#CBD2D8"/>
<path d="M25.0043 16.98C25.0043 16.1954 24.9342 15.4446 24.804 14.7227H14.7256V18.8588L20.5299 18.86C20.2945 20.2362 19.5369 21.4094 18.376 22.1915V24.8749H21.8311C23.8485 23.0062 25.0043 20.2437 25.0043 16.98Z" fill="#4285F4"/>
<path d="M18.3773 22.191C17.4155 22.8402 16.177 23.22 14.7281 23.22C11.9293 23.22 9.55493 21.3324 8.70463 18.7881H5.14062V21.5555C6.90635 25.0625 10.5355 27.4689 14.7281 27.4689C17.6259 27.4689 20.0603 26.5151 21.8323 24.8732L18.3773 22.191Z" fill="#34A853"/>
<path d="M8.36923 16.7348C8.36923 16.0204 8.4882 15.3298 8.70484 14.6805V11.9131H5.14083C4.41075 13.3632 4 15.0001 4 16.7348C4 18.4694 4.412 20.1063 5.14083 21.5565L8.70484 18.7891C8.4882 18.1398 8.36923 17.4492 8.36923 16.7348Z" fill="#FABB05"/>
<path d="M14.7281 10.2489C16.3098 10.2489 17.7261 10.7941 18.8444 11.8595L21.9062 8.79752C20.0466 7.06411 17.6222 6 14.7281 6C10.5367 6 6.90635 8.40647 5.14062 11.9134L8.70463 14.6808C9.55493 12.1365 11.9293 10.2489 14.7281 10.2489Z" fill="#E94235"/>
</svg>
